<svg width="380" height="79" viewBox="0 0 380 79" fill="none" xmlns="http://www.w3.org/2000/svg">
<path d="M68.0466 76.616C65.8386 77.576 62.9586 76.808 61.6146 74.216L54.9906 59.432C48.7506 57.896 42.5106 57.8 36.4626 59.144C31.5666 60.104 26.7666 61.928 22.0626 64.808C17.2626 67.784 12.2706 71.72 8.62263 75.272C6.79863 77.096 4.39863 77.672 2.38263 76.424C0.270625 75.08 0.558625 72.392 1.51863 70.184L31.8546 4.328C32.7186 2.6 34.3506 1.544 36.2706 1.544C38.0946 1.544 39.9186 2.696 40.5906 4.328L70.4466 70.184C71.5026 72.68 70.4466 75.464 68.0466 76.616ZM36.1746 17.864L17.7426 57.128C22.8306 54.248 29.5506 51.656 34.9266 50.6C40.1106 49.448 45.3906 49.256 50.6706 49.736L36.1746 17.864Z" fill="#6E44FF"/>
<path d="M109.788 78.152C102.78 78.152 96.7319 76.712 91.8359 73.832C87.6119 71.432 84.3479 68.072 81.9479 63.752C78.0119 56.456 78.0119 48.872 78.0119 46.376V6.34399C78.0119 3.752 80.2199 1.544 82.8119 1.544C85.4999 1.544 87.6119 3.752 87.6119 6.34399V46.376C87.6119 48.296 87.6119 54.056 90.3959 59.144C91.9319 61.928 93.9479 64.04 96.6359 65.576C99.9959 67.496 104.412 68.552 109.788 68.552C115.164 68.552 119.58 67.496 122.94 65.576C125.532 64.04 127.644 61.928 129.084 59.24C131.868 54.056 131.868 48.296 131.868 46.376V6.34399C131.868 3.752 134.076 1.544 136.668 1.544C139.356 1.544 141.468 3.752 141.468 6.34399V46.376C141.468 48.872 141.468 56.552 137.532 63.752C133.98 70.376 126.3 78.152 109.788 78.152ZM175.856 77H175.76H154.064C151.28 77 149.168 74.792 149.168 72.2V6.34399C149.168 5.096 149.648 3.848 150.608 2.984C151.472 2.12 152.816 1.544 154.064 1.544H176.048C181.328 1.544 186.416 2.6 191.12 4.51999C195.728 6.44 199.952 9.224 203.6 12.68C207.152 16.136 209.936 20.168 211.952 24.776C213.968 29.48 215.024 34.376 215.024 39.464C215.024 44.456 213.968 49.256 211.856 53.864C209.84 58.376 207.056 62.408 203.408 65.864C199.76 69.416 195.536 72.104 190.928 74.024C186.128 75.944 181.04 77 175.856 77ZM158.864 67.304H176.048C179.984 67.208 183.728 66.44 187.28 65C190.832 63.56 194 61.544 196.688 58.952C199.376 56.36 201.488 53.288 203.12 49.928C204.656 46.568 205.424 43.112 205.424 39.464C205.424 35.72 204.656 32.072 203.12 28.616C201.584 25.256 199.472 22.184 196.784 19.592C191.216 14.12 183.92 11.144 176.048 11.144H158.864V67.304ZM227.948 77C225.356 77 223.148 74.888 223.148 72.2V6.34399C223.148 3.752 225.356 1.544 227.948 1.544C230.636 1.544 232.748 3.752 232.748 6.34399V72.2C232.748 74.888 230.636 77 227.948 77ZM297.493 1.544H245.749C243.061 1.544 240.949 3.65599 240.949 6.34399C240.949 9.032 243.061 11.144 245.749 11.144H266.869V72.2C266.869 74.888 268.981 77 271.669 77C274.261 77 276.469 74.888 276.469 72.2V11.144H297.493C300.181 11.144 302.293 9.032 302.293 6.34399C302.293 3.65599 300.181 1.544 297.493 1.544ZM340.3 78.632C335.02 78.632 329.836 77.576 324.94 75.464C320.236 73.448 316.012 70.664 312.364 67.016C308.812 63.368 305.932 59.24 303.916 54.536C301.9 49.736 300.844 44.648 300.844 39.464C300.844 34.184 301.9 29.096 304.012 24.296C306.028 19.688 308.908 15.464 312.556 11.912C316.204 8.264 320.428 5.47999 325.132 3.464C330.028 1.44799 335.212 0.391996 340.588 0.391996C351.052 0.391996 360.844 4.51999 368.14 12.008C371.692 15.56 374.38 19.784 376.3 24.392C378.316 29.192 379.276 34.28 379.276 39.464C379.276 44.744 378.316 49.832 376.3 54.536C374.38 59.24 371.596 63.464 368.044 67.016C360.652 74.504 350.86 78.632 340.3 78.632ZM340.588 9.992C336.556 9.992 332.62 10.76 328.876 12.296C325.228 13.832 322.06 15.944 319.276 18.728C316.492 21.416 314.284 24.584 312.844 28.136C311.212 31.688 310.444 35.528 310.444 39.464C310.444 43.4 311.212 47.144 312.748 50.792C314.284 54.344 316.396 57.512 319.18 60.2C324.844 65.864 332.332 69.032 340.3 69.032C348.268 69.032 355.66 65.864 361.228 60.296C363.916 57.608 365.932 54.44 367.468 50.888C368.908 47.24 369.676 43.4 369.676 39.464C369.676 31.592 366.7 24.2 361.324 18.728C355.852 13.064 348.46 9.992 340.588 9.992Z" fill="black"/>
</svg>
